G04 #@! TF.GenerationSoftware,KiCad,Pcbnew,(5.1.9)-1*
G04 #@! TF.CreationDate,2021-04-10T17:02:56+02:00*
G04 #@! TF.ProjectId,Battery_analyzer_MKII,42617474-6572-4795-9f61-6e616c797a65,2*
G04 #@! TF.SameCoordinates,Original*
G04 #@! TF.FileFunction,Legend,Bot*
G04 #@! TF.FilePolarity,Positive*
%FSLAX46Y46*%
G04 Gerber Fmt 4.6, Leading zero omitted, Abs format (unit mm)*
G04 Created by KiCad (PCBNEW (5.1.9)-1) date 2021-04-10 17:02:56*
%MOMM*%
%LPD*%
G01*
G04 APERTURE LIST*
%ADD10C,0.250000*%
%ADD11C,0.120000*%
G04 APERTURE END LIST*
D10*
X178819523Y-100772142D02*
X178533809Y-100867380D01*
X178438571Y-100962619D01*
X178343333Y-101153095D01*
X178343333Y-101438809D01*
X178438571Y-101629285D01*
X178533809Y-101724523D01*
X178724285Y-101819761D01*
X179486190Y-101819761D01*
X179486190Y-99819761D01*
X178819523Y-99819761D01*
X178629047Y-99915000D01*
X178533809Y-100010238D01*
X178438571Y-100200714D01*
X178438571Y-100391190D01*
X178533809Y-100581666D01*
X178629047Y-100676904D01*
X178819523Y-100772142D01*
X179486190Y-100772142D01*
X176629047Y-101819761D02*
X176629047Y-100772142D01*
X176724285Y-100581666D01*
X176914761Y-100486428D01*
X177295714Y-100486428D01*
X177486190Y-100581666D01*
X176629047Y-101724523D02*
X176819523Y-101819761D01*
X177295714Y-101819761D01*
X177486190Y-101724523D01*
X177581428Y-101534047D01*
X177581428Y-101343571D01*
X177486190Y-101153095D01*
X177295714Y-101057857D01*
X176819523Y-101057857D01*
X176629047Y-100962619D01*
X175962380Y-100486428D02*
X175200476Y-100486428D01*
X175676666Y-99819761D02*
X175676666Y-101534047D01*
X175581428Y-101724523D01*
X175390952Y-101819761D01*
X175200476Y-101819761D01*
X174819523Y-100486428D02*
X174057619Y-100486428D01*
X174533809Y-99819761D02*
X174533809Y-101534047D01*
X174438571Y-101724523D01*
X174248095Y-101819761D01*
X174057619Y-101819761D01*
X172629047Y-101724523D02*
X172819523Y-101819761D01*
X173200476Y-101819761D01*
X173390952Y-101724523D01*
X173486190Y-101534047D01*
X173486190Y-100772142D01*
X173390952Y-100581666D01*
X173200476Y-100486428D01*
X172819523Y-100486428D01*
X172629047Y-100581666D01*
X172533809Y-100772142D01*
X172533809Y-100962619D01*
X173486190Y-101153095D01*
X171676666Y-101819761D02*
X171676666Y-100486428D01*
X171676666Y-100867380D02*
X171581428Y-100676904D01*
X171486190Y-100581666D01*
X171295714Y-100486428D01*
X171105238Y-100486428D01*
X170629047Y-100486428D02*
X170152857Y-101819761D01*
X169676666Y-100486428D02*
X170152857Y-101819761D01*
X170343333Y-102295952D01*
X170438571Y-102391190D01*
X170629047Y-102486428D01*
X166533809Y-101819761D02*
X166533809Y-100772142D01*
X166629047Y-100581666D01*
X166819523Y-100486428D01*
X167200476Y-100486428D01*
X167390952Y-100581666D01*
X166533809Y-101724523D02*
X166724285Y-101819761D01*
X167200476Y-101819761D01*
X167390952Y-101724523D01*
X167486190Y-101534047D01*
X167486190Y-101343571D01*
X167390952Y-101153095D01*
X167200476Y-101057857D01*
X166724285Y-101057857D01*
X166533809Y-100962619D01*
X165581428Y-100486428D02*
X165581428Y-101819761D01*
X165581428Y-100676904D02*
X165486190Y-100581666D01*
X165295714Y-100486428D01*
X165010000Y-100486428D01*
X164819523Y-100581666D01*
X164724285Y-100772142D01*
X164724285Y-101819761D01*
X162914761Y-101819761D02*
X162914761Y-100772142D01*
X163010000Y-100581666D01*
X163200476Y-100486428D01*
X163581428Y-100486428D01*
X163771904Y-100581666D01*
X162914761Y-101724523D02*
X163105238Y-101819761D01*
X163581428Y-101819761D01*
X163771904Y-101724523D01*
X163867142Y-101534047D01*
X163867142Y-101343571D01*
X163771904Y-101153095D01*
X163581428Y-101057857D01*
X163105238Y-101057857D01*
X162914761Y-100962619D01*
X161676666Y-101819761D02*
X161867142Y-101724523D01*
X161962380Y-101534047D01*
X161962380Y-99819761D01*
X161105238Y-100486428D02*
X160629047Y-101819761D01*
X160152857Y-100486428D02*
X160629047Y-101819761D01*
X160819523Y-102295952D01*
X160914761Y-102391190D01*
X161105238Y-102486428D01*
X159581428Y-100486428D02*
X158533809Y-100486428D01*
X159581428Y-101819761D01*
X158533809Y-101819761D01*
X157010000Y-101724523D02*
X157200476Y-101819761D01*
X157581428Y-101819761D01*
X157771904Y-101724523D01*
X157867142Y-101534047D01*
X157867142Y-100772142D01*
X157771904Y-100581666D01*
X157581428Y-100486428D01*
X157200476Y-100486428D01*
X157010000Y-100581666D01*
X156914761Y-100772142D01*
X156914761Y-100962619D01*
X157867142Y-101153095D01*
X156057619Y-101819761D02*
X156057619Y-100486428D01*
X156057619Y-100867380D02*
X155962380Y-100676904D01*
X155867142Y-100581666D01*
X155676666Y-100486428D01*
X155486190Y-100486428D01*
X153295714Y-101819761D02*
X153295714Y-99819761D01*
X152629047Y-101248333D01*
X151962380Y-99819761D01*
X151962380Y-101819761D01*
X151010000Y-101819761D02*
X151010000Y-99819761D01*
X150819523Y-101057857D02*
X150248095Y-101819761D01*
X150248095Y-100486428D02*
X151010000Y-101248333D01*
X147867142Y-101819761D02*
X147867142Y-99819761D01*
X146914761Y-101819761D02*
X146914761Y-99819761D01*
X144438571Y-101819761D02*
X144438571Y-99819761D01*
X144438571Y-100581666D02*
X144248095Y-100486428D01*
X143867142Y-100486428D01*
X143676666Y-100581666D01*
X143581428Y-100676904D01*
X143486190Y-100867380D01*
X143486190Y-101438809D01*
X143581428Y-101629285D01*
X143676666Y-101724523D01*
X143867142Y-101819761D01*
X144248095Y-101819761D01*
X144438571Y-101724523D01*
X142819523Y-100486428D02*
X142343333Y-101819761D01*
X141867142Y-100486428D02*
X142343333Y-101819761D01*
X142533809Y-102295952D01*
X142629047Y-102391190D01*
X142819523Y-102486428D01*
X139581428Y-101819761D02*
X139581428Y-99819761D01*
X138914761Y-101248333D01*
X138248095Y-99819761D01*
X138248095Y-101819761D01*
X137010000Y-101819761D02*
X137200476Y-101724523D01*
X137295714Y-101629285D01*
X137390952Y-101438809D01*
X137390952Y-100867380D01*
X137295714Y-100676904D01*
X137200476Y-100581666D01*
X137010000Y-100486428D01*
X136724285Y-100486428D01*
X136533809Y-100581666D01*
X136438571Y-100676904D01*
X136343333Y-100867380D01*
X136343333Y-101438809D01*
X136438571Y-101629285D01*
X136533809Y-101724523D01*
X136724285Y-101819761D01*
X137010000Y-101819761D01*
X135486190Y-101819761D02*
X135486190Y-100486428D01*
X135486190Y-100867380D02*
X135390952Y-100676904D01*
X135295714Y-100581666D01*
X135105238Y-100486428D01*
X134914761Y-100486428D01*
X133390952Y-101819761D02*
X133390952Y-100772142D01*
X133486190Y-100581666D01*
X133676666Y-100486428D01*
X134057619Y-100486428D01*
X134248095Y-100581666D01*
X133390952Y-101724523D02*
X133581428Y-101819761D01*
X134057619Y-101819761D01*
X134248095Y-101724523D01*
X134343333Y-101534047D01*
X134343333Y-101343571D01*
X134248095Y-101153095D01*
X134057619Y-101057857D01*
X133581428Y-101057857D01*
X133390952Y-100962619D01*
X131581428Y-100486428D02*
X131581428Y-102105476D01*
X131676666Y-102295952D01*
X131771904Y-102391190D01*
X131962380Y-102486428D01*
X132248095Y-102486428D01*
X132438571Y-102391190D01*
X131581428Y-101724523D02*
X131771904Y-101819761D01*
X132152857Y-101819761D01*
X132343333Y-101724523D01*
X132438571Y-101629285D01*
X132533809Y-101438809D01*
X132533809Y-100867380D01*
X132438571Y-100676904D01*
X132343333Y-100581666D01*
X132152857Y-100486428D01*
X131771904Y-100486428D01*
X131581428Y-100581666D01*
X130343333Y-101819761D02*
X130533809Y-101724523D01*
X130629047Y-101629285D01*
X130724285Y-101438809D01*
X130724285Y-100867380D01*
X130629047Y-100676904D01*
X130533809Y-100581666D01*
X130343333Y-100486428D01*
X130057619Y-100486428D01*
X129867142Y-100581666D01*
X129771904Y-100676904D01*
X129676666Y-100867380D01*
X129676666Y-101438809D01*
X129771904Y-101629285D01*
X129867142Y-101724523D01*
X130057619Y-101819761D01*
X130343333Y-101819761D01*
X128819523Y-101819761D02*
X128819523Y-100486428D01*
X128819523Y-100867380D02*
X128724285Y-100676904D01*
X128629047Y-100581666D01*
X128438571Y-100486428D01*
X128248095Y-100486428D01*
X157200476Y-105069761D02*
X157867142Y-104117380D01*
X158343333Y-105069761D02*
X158343333Y-103069761D01*
X157581428Y-103069761D01*
X157390952Y-103165000D01*
X157295714Y-103260238D01*
X157200476Y-103450714D01*
X157200476Y-103736428D01*
X157295714Y-103926904D01*
X157390952Y-104022142D01*
X157581428Y-104117380D01*
X158343333Y-104117380D01*
X155581428Y-104974523D02*
X155771904Y-105069761D01*
X156152857Y-105069761D01*
X156343333Y-104974523D01*
X156438571Y-104784047D01*
X156438571Y-104022142D01*
X156343333Y-103831666D01*
X156152857Y-103736428D01*
X155771904Y-103736428D01*
X155581428Y-103831666D01*
X155486190Y-104022142D01*
X155486190Y-104212619D01*
X156438571Y-104403095D01*
X154819523Y-103736428D02*
X154343333Y-105069761D01*
X153867142Y-103736428D01*
X153105238Y-104879285D02*
X153010000Y-104974523D01*
X153105238Y-105069761D01*
X153200476Y-104974523D01*
X153105238Y-104879285D01*
X153105238Y-105069761D01*
X150724285Y-103260238D02*
X150629047Y-103165000D01*
X150438571Y-103069761D01*
X149962380Y-103069761D01*
X149771904Y-103165000D01*
X149676666Y-103260238D01*
X149581428Y-103450714D01*
X149581428Y-103641190D01*
X149676666Y-103926904D01*
X150819523Y-105069761D01*
X149581428Y-105069761D01*
D11*
X196028000Y-115376000D02*
X197358000Y-115376000D01*
X196028000Y-114046000D02*
X196028000Y-115376000D01*
X198628000Y-115376000D02*
X201228000Y-115376000D01*
X198628000Y-112776000D02*
X198628000Y-115376000D01*
X196028000Y-112776000D02*
X198628000Y-112776000D01*
X201228000Y-115376000D02*
X201228000Y-69536000D01*
X196028000Y-112776000D02*
X196028000Y-69536000D01*
X196028000Y-69536000D02*
X201228000Y-69536000D01*
X150428000Y-117796000D02*
X150428000Y-120456000D01*
X132588000Y-117796000D02*
X150428000Y-117796000D01*
X132588000Y-120456000D02*
X150428000Y-120456000D01*
X132588000Y-117796000D02*
X132588000Y-120456000D01*
X131318000Y-117796000D02*
X129988000Y-117796000D01*
X129988000Y-117796000D02*
X129988000Y-119126000D01*
X152848000Y-117796000D02*
X152848000Y-119126000D01*
X154178000Y-117796000D02*
X152848000Y-117796000D01*
X155448000Y-117796000D02*
X155448000Y-120456000D01*
X155448000Y-120456000D02*
X173288000Y-120456000D01*
X155448000Y-117796000D02*
X173288000Y-117796000D01*
X173288000Y-117796000D02*
X173288000Y-120456000D01*
X175708000Y-117796000D02*
X175708000Y-119126000D01*
X177038000Y-117796000D02*
X175708000Y-117796000D01*
X178308000Y-117796000D02*
X178308000Y-120456000D01*
X178308000Y-120456000D02*
X196148000Y-120456000D01*
X178308000Y-117796000D02*
X196148000Y-117796000D01*
X196148000Y-117796000D02*
X196148000Y-120456000D01*
X120844000Y-69536000D02*
X120844000Y-70866000D01*
X122174000Y-69536000D02*
X120844000Y-69536000D01*
X123444000Y-69536000D02*
X123444000Y-72196000D01*
X123444000Y-72196000D02*
X146364000Y-72196000D01*
X123444000Y-69536000D02*
X146364000Y-69536000D01*
X146364000Y-69536000D02*
X146364000Y-72196000D01*
X168208000Y-69536000D02*
X168208000Y-72196000D01*
X150368000Y-69536000D02*
X168208000Y-69536000D01*
X150368000Y-72196000D02*
X168208000Y-72196000D01*
X150368000Y-69536000D02*
X150368000Y-72196000D01*
X149098000Y-69536000D02*
X147768000Y-69536000D01*
X147768000Y-69536000D02*
X147768000Y-70866000D01*
X170628000Y-69536000D02*
X170628000Y-70866000D01*
X171958000Y-69536000D02*
X170628000Y-69536000D01*
X173228000Y-69536000D02*
X173228000Y-72196000D01*
X173228000Y-72196000D02*
X191068000Y-72196000D01*
X173228000Y-69536000D02*
X191068000Y-69536000D01*
X191068000Y-69536000D02*
X191068000Y-72196000D01*
M02*
