G04 #@! TF.GenerationSoftware,KiCad,Pcbnew,(5.1.9)-1*
G04 #@! TF.CreationDate,2021-04-10T17:02:56+02:00*
G04 #@! TF.ProjectId,Battery_analyzer_MKII,42617474-6572-4795-9f61-6e616c797a65,2*
G04 #@! TF.SameCoordinates,Original*
G04 #@! TF.FileFunction,Soldermask,Top*
G04 #@! TF.FilePolarity,Negative*
%FSLAX46Y46*%
G04 Gerber Fmt 4.6, Leading zero omitted, Abs format (unit mm)*
G04 Created by KiCad (PCBNEW (5.1.9)-1) date 2021-04-10 17:02:56*
%MOMM*%
%LPD*%
G01*
G04 APERTURE LIST*
%ADD10R,1.700000X1.700000*%
%ADD11O,1.700000X1.700000*%
%ADD12O,1.600000X1.600000*%
%ADD13R,1.600000X1.600000*%
%ADD14R,1.560000X0.650000*%
%ADD15C,2.000000*%
%ADD16C,1.600000*%
%ADD17O,2.400000X2.400000*%
%ADD18C,2.400000*%
%ADD19O,1.905000X2.000000*%
%ADD20R,1.905000X2.000000*%
G04 APERTURE END LIST*
D10*
X197358000Y-114046000D03*
D11*
X199898000Y-114046000D03*
X197358000Y-111506000D03*
X199898000Y-111506000D03*
X197358000Y-108966000D03*
X199898000Y-108966000D03*
X197358000Y-106426000D03*
X199898000Y-106426000D03*
X197358000Y-103886000D03*
X199898000Y-103886000D03*
X197358000Y-101346000D03*
X199898000Y-101346000D03*
X197358000Y-98806000D03*
X199898000Y-98806000D03*
X197358000Y-96266000D03*
X199898000Y-96266000D03*
X197358000Y-93726000D03*
X199898000Y-93726000D03*
X197358000Y-91186000D03*
X199898000Y-91186000D03*
X197358000Y-88646000D03*
X199898000Y-88646000D03*
X197358000Y-86106000D03*
X199898000Y-86106000D03*
X197358000Y-83566000D03*
X199898000Y-83566000D03*
X197358000Y-81026000D03*
X199898000Y-81026000D03*
X197358000Y-78486000D03*
X199898000Y-78486000D03*
X197358000Y-75946000D03*
X199898000Y-75946000D03*
X197358000Y-73406000D03*
X199898000Y-73406000D03*
X197358000Y-70866000D03*
X199898000Y-70866000D03*
D12*
X122010000Y-78720000D03*
X129630000Y-86340000D03*
X124550000Y-78720000D03*
X127090000Y-86340000D03*
X127090000Y-78720000D03*
X124550000Y-86340000D03*
X129630000Y-78720000D03*
D13*
X122010000Y-86340000D03*
D14*
X174660000Y-82340000D03*
X174660000Y-81390000D03*
X174660000Y-83290000D03*
X171960000Y-83290000D03*
X171960000Y-82340000D03*
X171960000Y-81390000D03*
D15*
X115720000Y-113030000D03*
X115720000Y-117530000D03*
X109220000Y-113030000D03*
X109220000Y-117530000D03*
D16*
X119210000Y-113740000D03*
X188210000Y-113740000D03*
D11*
X167640000Y-74930000D03*
D10*
X170180000Y-74930000D03*
D15*
X115720000Y-105410000D03*
X115720000Y-109910000D03*
X109220000Y-105410000D03*
X109220000Y-109910000D03*
X115720000Y-97790000D03*
X115720000Y-102290000D03*
X109220000Y-97790000D03*
X109220000Y-102290000D03*
D10*
X180340000Y-74930000D03*
D11*
X182880000Y-74930000D03*
X185420000Y-74930000D03*
X187960000Y-74930000D03*
X190500000Y-74930000D03*
X193040000Y-74930000D03*
X129794000Y-74930000D03*
X127254000Y-74930000D03*
X124714000Y-74930000D03*
D10*
X122174000Y-74930000D03*
D15*
X106262646Y-74930000D03*
X106262646Y-70430000D03*
X112762646Y-74930000D03*
X112762646Y-70430000D03*
D12*
X180340000Y-81280000D03*
D16*
X190500000Y-81280000D03*
D12*
X180340000Y-88900000D03*
D16*
X190500000Y-88900000D03*
D12*
X180340000Y-85090000D03*
D16*
X190500000Y-85090000D03*
D17*
X156170000Y-91040000D03*
D18*
X171410000Y-91040000D03*
D19*
X154390000Y-78840000D03*
X151850000Y-78840000D03*
D20*
X149310000Y-78840000D03*
D11*
X191770000Y-100330000D03*
X191770000Y-102870000D03*
X191770000Y-105410000D03*
X191770000Y-107950000D03*
X191770000Y-110490000D03*
D10*
X191770000Y-113030000D03*
D16*
X161860000Y-85140000D03*
X167360000Y-85140000D03*
X127560000Y-91440000D03*
X122060000Y-91440000D03*
D11*
X149098000Y-119126000D03*
X146558000Y-119126000D03*
X144018000Y-119126000D03*
X141478000Y-119126000D03*
X138938000Y-119126000D03*
X136398000Y-119126000D03*
X133858000Y-119126000D03*
D10*
X131318000Y-119126000D03*
X154178000Y-119126000D03*
D11*
X156718000Y-119126000D03*
X159258000Y-119126000D03*
X161798000Y-119126000D03*
X164338000Y-119126000D03*
X166878000Y-119126000D03*
X169418000Y-119126000D03*
X171958000Y-119126000D03*
D10*
X177038000Y-119126000D03*
D11*
X179578000Y-119126000D03*
X182118000Y-119126000D03*
X184658000Y-119126000D03*
X187198000Y-119126000D03*
X189738000Y-119126000D03*
X192278000Y-119126000D03*
X194818000Y-119126000D03*
D10*
X122174000Y-70866000D03*
D11*
X124714000Y-70866000D03*
X127254000Y-70866000D03*
X129794000Y-70866000D03*
X132334000Y-70866000D03*
X134874000Y-70866000D03*
X137414000Y-70866000D03*
X139954000Y-70866000D03*
X142494000Y-70866000D03*
X145034000Y-70866000D03*
X166878000Y-70866000D03*
X164338000Y-70866000D03*
X161798000Y-70866000D03*
X159258000Y-70866000D03*
X156718000Y-70866000D03*
X154178000Y-70866000D03*
X151638000Y-70866000D03*
D10*
X149098000Y-70866000D03*
X171958000Y-70866000D03*
D11*
X174498000Y-70866000D03*
X177038000Y-70866000D03*
X179578000Y-70866000D03*
X182118000Y-70866000D03*
X184658000Y-70866000D03*
X187198000Y-70866000D03*
X189738000Y-70866000D03*
M02*
