M48
; DRILL file {KiCad (5.1.9)-1} date 04/10/21 17:03:14
; FORMAT={-:-/ absolute / metric / decimal}
; #@! TF.CreationDate,2021-04-10T17:03:14+02:00
; #@! TF.GenerationSoftware,Kicad,Pcbnew,(5.1.9)-1
; #@! TF.FileFunction,Plated,1,2,PTH
FMAT,2
METRIC
T1C0.400
T2C0.800
T3C1.000
T4C1.100
T5C1.200
%
G90
G05
T1
X161.61Y-78.44
X169.21Y-82.34
X182.41Y-91.44
T2
X119.21Y-113.74
X122.01Y-78.72
X122.01Y-86.34
X122.06Y-91.44
X124.55Y-78.72
X124.55Y-86.34
X127.09Y-78.72
X127.09Y-86.34
X127.56Y-91.44
X129.63Y-78.72
X129.63Y-86.34
X161.86Y-85.14
X167.36Y-85.14
X180.34Y-81.28
X180.34Y-85.09
X180.34Y-88.9
X188.21Y-113.74
X190.5Y-81.28
X190.5Y-85.09
X190.5Y-88.9
T3
X122.174Y-70.866
X122.174Y-74.93
X124.714Y-70.866
X124.714Y-74.93
X127.254Y-70.866
X127.254Y-74.93
X129.794Y-70.866
X129.794Y-74.93
X131.318Y-119.126
X132.334Y-70.866
X133.858Y-119.126
X134.874Y-70.866
X136.398Y-119.126
X137.414Y-70.866
X138.938Y-119.126
X139.954Y-70.866
X141.478Y-119.126
X142.494Y-70.866
X144.018Y-119.126
X145.034Y-70.866
X146.558Y-119.126
X149.098Y-70.866
X149.098Y-119.126
X151.638Y-70.866
X154.178Y-70.866
X154.178Y-119.126
X156.718Y-70.866
X156.718Y-119.126
X159.258Y-70.866
X159.258Y-119.126
X161.798Y-70.866
X161.798Y-119.126
X164.338Y-70.866
X164.338Y-119.126
X166.878Y-70.866
X166.878Y-119.126
X167.64Y-74.93
X169.418Y-119.126
X170.18Y-74.93
X171.958Y-70.866
X171.958Y-119.126
X174.498Y-70.866
X177.038Y-70.866
X177.038Y-119.126
X179.578Y-70.866
X179.578Y-119.126
X180.34Y-74.93
X182.118Y-70.866
X182.118Y-119.126
X182.88Y-74.93
X184.658Y-70.866
X184.658Y-119.126
X185.42Y-74.93
X187.198Y-70.866
X187.198Y-119.126
X187.96Y-74.93
X189.738Y-70.866
X189.738Y-119.126
X190.5Y-74.93
X191.77Y-100.33
X191.77Y-102.87
X191.77Y-105.41
X191.77Y-107.95
X191.77Y-110.49
X191.77Y-113.03
X192.278Y-119.126
X193.04Y-74.93
X194.818Y-119.126
X197.358Y-70.866
X197.358Y-73.406
X197.358Y-75.946
X197.358Y-78.486
X197.358Y-81.026
X197.358Y-83.566
X197.358Y-86.106
X197.358Y-88.646
X197.358Y-91.186
X197.358Y-93.726
X197.358Y-96.266
X197.358Y-98.806
X197.358Y-101.346
X197.358Y-103.886
X197.358Y-106.426
X197.358Y-108.966
X197.358Y-111.506
X197.358Y-114.046
X199.898Y-70.866
X199.898Y-73.406
X199.898Y-75.946
X199.898Y-78.486
X199.898Y-81.026
X199.898Y-83.566
X199.898Y-86.106
X199.898Y-88.646
X199.898Y-91.186
X199.898Y-93.726
X199.898Y-96.266
X199.898Y-98.806
X199.898Y-101.346
X199.898Y-103.886
X199.898Y-106.426
X199.898Y-108.966
X199.898Y-111.506
X199.898Y-114.046
T4
X106.263Y-70.43
X106.263Y-74.93
X109.22Y-97.79
X109.22Y-102.29
X109.22Y-105.41
X109.22Y-109.91
X109.22Y-113.03
X109.22Y-117.53
X112.763Y-70.43
X112.763Y-74.93
X115.72Y-97.79
X115.72Y-102.29
X115.72Y-105.41
X115.72Y-109.91
X115.72Y-113.03
X115.72Y-117.53
X149.31Y-78.84
X151.85Y-78.84
X154.39Y-78.84
T5
X156.17Y-91.04
X171.41Y-91.04
T0
M30
